<svg width="201" height="30" viewBox="0 0 201 30" fill="none" xmlns="http://www.w3.org/2000/svg">
<path d="M18.3319 1.05261C19.0935 1.15195 19.6895 1.7811 19.6895 2.5427C19.6895 3.33741 19.1597 3.96656 18.3319 4.09902C17.9346 4.13213 17.5372 4.13213 17.1398 4.13213C15.3517 4.13213 13.5305 4.09902 11.7424 4.09902C11.4775 4.09902 11.2126 4.09902 10.8152 4.09902C10.7159 7.04608 10.6166 9.79447 10.4841 12.576C10.3185 15.1588 10.1861 17.7747 9.92118 20.3576C9.65627 23.0728 8.43109 25.3908 6.57675 27.3775C6.41119 27.51 6.27873 27.6756 6.11317 27.808C5.45091 28.3047 4.55685 28.2716 3.99393 27.7418C3.43101 27.1789 3.36478 26.3179 3.89459 25.6225C3.99393 25.457 4.15949 25.2914 4.29195 25.159C5.84826 23.4702 6.67609 21.4834 6.87477 19.2317C7.00722 17.7747 7.10656 16.3178 7.17279 14.8608C7.33835 11.6157 7.47081 8.37061 7.60326 5.12552C7.63637 4.8275 7.60326 4.52949 7.60326 4.13213C6.90788 4.13213 6.27873 4.13213 5.64958 4.13213C4.49063 4.13213 3.33167 4.16524 2.17271 4.16524C1.11309 4.13213 0.417712 3.53609 0.417712 2.60893C0.417712 1.68176 1.04686 1.08572 2.17271 1.08572C4.52374 1.05261 6.90788 1.05261 9.29203 1.05261C11.9742 1.05261 14.6895 1.0195 17.4047 1.0195C17.7028 1.0195 18.0339 0.986382 18.3319 1.05261ZM39.9721 1.51619C40.7999 1.64865 41.396 2.41025 41.3297 3.17185C41.2635 3.96656 40.6344 4.59571 39.7734 4.62883C38.184 4.66194 36.5946 4.66194 35.0051 4.66194C34.1773 4.62883 33.3164 4.5626 32.4885 4.49637C31.8925 4.43015 31.462 4.5626 31.1309 5.12552C30.6342 5.95335 30.0713 6.74807 29.409 7.74146C29.9719 7.74146 30.3031 7.70835 30.6011 7.74146C32.5217 7.74146 34.4091 7.74146 36.2966 7.74146C36.6608 7.77457 37.0582 7.80768 37.3893 7.90702C38.0515 8.13882 38.3827 8.63551 38.3827 9.29777C38.4158 9.99315 38.0847 10.4898 37.4555 10.7548C37.0913 10.8872 36.6608 10.9203 36.2634 10.9203C33.8131 10.8872 31.3296 10.8541 28.8461 10.821C28.6474 10.821 28.4487 10.821 28.1507 10.821C27.9852 11.3508 27.7865 11.8806 27.654 12.4104C27.1904 14.4965 26.76 16.6158 27.1242 18.7681C27.1904 19.2979 27.3229 19.8277 27.5216 20.3244C27.9852 21.7483 29.5084 22.7086 30.9985 22.543C33.1177 22.3112 34.8727 21.4172 36.131 19.6291C36.429 19.2317 36.727 18.8012 37.2899 18.735C37.9522 18.6357 38.482 18.8012 38.8794 19.3642C39.3098 19.9933 39.2767 20.6887 38.8463 21.2847C37.886 22.6755 36.727 23.8344 35.2038 24.596C33.1839 25.5894 31.0316 26.0199 28.813 25.4239C26.6937 24.8278 25.2037 23.5033 24.4752 21.351C23.7467 19.2648 23.6805 17.1125 23.9785 14.927C24.144 13.6025 24.4089 12.278 24.6738 10.7879C24.0447 10.7879 23.4155 10.7879 22.8195 10.7879C21.8261 10.7548 21.1639 10.1256 21.1639 9.23155C21.1639 8.37061 21.8592 7.67523 22.8195 7.70835C23.8129 7.74146 24.7732 7.70835 25.8328 7.70835C26.3957 6.68184 26.9918 5.62222 27.6871 4.43015C26.6606 4.43015 25.7997 4.43015 24.9388 4.43015C24.6407 4.43015 24.3096 4.43015 24.0447 4.39703C23.3493 4.23147 22.8857 3.73477 22.7864 3.07251C22.7202 2.34402 23.0513 1.71487 23.7467 1.44997C24.2103 1.2844 24.6738 1.21817 25.1374 1.25129C29.0448 1.31751 32.9521 1.48308 36.8264 1.58242C37.588 1.58242 38.3165 1.48308 39.0449 1.48308C39.3761 1.44997 39.6741 1.44997 39.9721 1.51619ZM51.2352 5.12552C48.818 8.00636 47.5266 11.3508 47.063 14.9932C46.8643 16.5495 47.3279 18.0396 48.1888 19.3311C48.8842 20.3907 49.9769 20.8874 51.169 21.1523C53.6194 21.649 55.6393 20.9867 57.1294 18.9006C57.4605 18.4701 57.7585 18.0065 58.3545 17.9072C59.0168 17.8078 59.5797 17.9403 59.9771 18.5032C60.4076 19.1324 60.3413 19.7946 59.944 20.4238C58.9175 21.9801 57.5929 23.2384 55.8048 23.9007C53.8512 24.596 51.8313 24.6954 49.8445 24.0662C46.4338 23.0397 44.5464 20.8543 43.9503 16.6158C43.6854 14.927 43.9835 13.3045 44.447 11.6819C45.1424 9.19844 46.0365 6.81429 47.5597 4.69505C47.6259 4.59571 47.6921 4.46326 47.8246 4.23147C47.1292 4.23147 46.5332 4.26458 45.9702 4.19835C44.8444 4.13213 44.1821 3.17185 44.5133 2.14534C44.7119 1.54931 45.1424 1.21817 45.7384 1.11883C46.0034 1.05261 46.3014 1.05261 46.5663 1.05261C50.3081 1.05261 54.0167 1.08572 57.7585 1.08572C58.2883 1.08572 58.8181 1.11883 59.3811 1.18506C60.4738 1.2844 61.0698 1.91355 61.0036 2.84072C60.9374 3.73477 60.2751 4.26458 59.2155 4.26458C57.1956 4.26458 55.1426 4.33081 53.1227 4.23147C52.2948 4.23147 51.7319 4.52949 51.2352 5.12552ZM80.5758 11.6819C81.9003 11.9137 82.4963 13.2382 81.7016 14.1654C81.4367 14.4965 80.94 14.6952 80.5095 14.8277C80.1122 14.927 79.6486 14.8277 79.1519 14.8277C79.1188 15.0595 79.0526 15.2581 79.0526 15.4568C78.9863 17.8078 78.9201 20.192 78.8208 22.543C78.8208 22.8742 78.7877 23.1722 78.7214 23.4702C78.4896 24.3974 77.8274 24.8941 76.9664 24.7947C76.1386 24.7285 75.5426 24.0662 75.5757 23.1059C75.6088 21.947 75.7081 20.8211 75.7081 19.6622C75.7413 18.1059 75.7081 16.5495 75.7081 14.927C73.4565 14.927 71.1385 14.927 68.7544 14.927C68.5226 16.1853 68.3901 17.4767 68.059 18.7681C67.6617 20.3576 67.165 21.947 66.6683 23.5033C66.006 25.5563 64.5821 27.0795 63.0258 28.4372C62.2642 29.0994 61.3371 29.0332 60.741 28.404C60.1119 27.7418 60.1119 26.7153 60.9066 26.053C62.9265 24.4305 63.9199 22.2781 64.5159 19.8609C64.8139 18.5363 65.1119 17.2118 65.3769 15.8873C65.41 15.6224 65.3769 15.2912 65.3769 14.9601C64.847 14.9601 64.3172 14.9601 63.8205 14.9601C63.3901 14.9601 62.9596 14.9601 62.5291 14.8608C61.7013 14.6952 61.2046 14.033 61.2708 13.2713C61.3039 12.5097 61.9 11.8806 62.7278 11.8144C63.5225 11.7813 64.3503 11.8144 65.1451 11.7813C65.2775 11.7813 65.41 11.7481 65.6418 11.715C65.6749 11.0528 65.7411 10.3905 65.708 9.72825C65.6749 7.50967 65.5755 5.3242 65.5093 3.10562C65.4762 2.87383 65.5093 2.64204 65.5424 2.41025C65.708 1.54931 66.304 1.05261 67.0656 1.05261C67.8603 1.05261 68.5226 1.61553 68.6551 2.47647C68.7544 3.33741 68.8537 4.23147 68.8537 5.09241C68.8868 7.11231 68.8537 9.0991 68.8868 11.119C68.8868 11.2846 68.92 11.4832 68.92 11.6819C71.271 11.6819 73.5558 11.6819 75.9399 11.6819C75.9399 11.2514 76.0062 10.8872 76.0062 10.523C76.0062 7.8408 76.0393 5.12552 76.0062 2.41025C75.9731 1.2844 76.3373 0.42346 77.43 -0.00701077C77.5625 -0.00701077 77.6949 -0.00701077 77.8274 -0.00701077C78.9532 0.42346 79.2844 1.25129 79.2513 2.41025C79.1519 5.22486 79.1519 8.07259 79.1188 10.9203C79.1188 11.119 79.1519 11.3177 79.1519 11.5826C79.6817 11.6157 80.1453 11.6157 80.5758 11.6819ZM104.934 5.12552C102.517 8.00636 101.225 11.3508 100.762 14.9932C100.563 16.5495 101.027 18.0396 101.888 19.3311C102.583 20.3907 103.676 20.8874 104.868 21.1523C107.318 21.649 109.338 20.9867 110.828 18.9006C111.159 18.4701 111.457 18.0065 112.053 17.9072C112.716 17.8078 113.279 17.9403 113.676 18.5032C114.106 19.1324 114.04 19.7946 113.643 20.4238C112.616 21.9801 111.292 23.2384 109.504 23.9007C107.55 24.596 105.53 24.6954 103.543 24.0662C100.133 23.0397 98.2452 20.8543 97.6492 16.6158C97.3843 14.927 97.6823 13.3045 98.1459 11.6819C98.8413 9.19844 99.7353 6.81429 101.259 4.69505C101.325 4.59571 101.391 4.46326 101.523 4.23147C100.828 4.23147 100.232 4.26458 99.6691 4.19835C98.5433 4.13213 97.881 3.17185 98.2121 2.14534C98.4108 1.54931 98.8413 1.21817 99.4373 1.11883C99.7022 1.05261 100 1.05261 100.265 1.05261C104.007 1.05261 107.716 1.08572 111.457 1.08572C111.987 1.08572 112.517 1.11883 113.08 1.18506C114.173 1.2844 114.769 1.91355 114.702 2.84072C114.636 3.73477 113.974 4.26458 112.914 4.26458C110.894 4.26458 108.841 4.33081 106.822 4.23147C105.994 4.23147 105.431 4.52949 104.934 5.12552ZM134.003 21.649C134.897 21.8145 135.427 22.5099 135.328 23.2715C135.228 24.1325 134.566 24.6623 133.639 24.6623C132.513 24.6954 131.586 24.2649 130.791 23.5364C129.566 22.4768 128.639 21.2185 128.01 19.6953C127.281 17.9072 126.751 16.086 126.42 14.1654C126.387 13.9336 126.321 13.7018 126.222 13.4038C125.228 13.6356 124.367 13.8674 123.573 14.033C123.076 16.2846 122.645 18.4701 122.149 20.6556C121.619 22.841 120.725 24.8941 119.334 26.6822C119.069 27.0133 118.771 27.3775 118.473 27.6756C117.778 28.3047 116.851 28.3047 116.255 27.7418C115.625 27.1789 115.592 26.2517 116.122 25.5232C116.685 24.7616 117.281 24 117.778 23.2053C118.109 22.6424 118.374 22.0132 118.606 21.351C119.732 17.9734 120.361 14.4965 120.361 10.8872C120.361 8.53617 120.361 6.15203 120.063 3.73477C119.765 3.70166 119.467 3.66855 119.169 3.66855C118.871 3.66855 118.573 3.70166 118.275 3.63543C117.347 3.53609 116.718 2.84072 116.718 2.046C116.718 1.21817 117.38 0.589026 118.308 0.489686C118.407 0.489686 118.506 0.489686 118.606 0.489686C122.943 0.390345 127.281 0.32412 131.619 0.257895C133.242 0.22478 133.738 0.820816 133.639 2.41025C133.507 5.55599 132.281 8.20504 130.195 10.4567C129.5 11.1852 129.268 11.9137 129.434 12.9071C129.765 14.8939 130.195 16.8145 131.056 18.6357C131.387 19.3311 131.851 19.9602 132.315 20.5893C132.745 21.1523 133.308 21.4834 134.003 21.649ZM123.639 10.6554C126.917 10.6885 130.162 5.95335 130.228 3.56921C127.944 3.56921 125.659 3.56921 123.341 3.56921C123.44 5.98646 123.54 8.30438 123.639 10.6554ZM157.426 1.21817C158.353 1.2844 159.016 1.91355 159.016 2.77449C159.016 3.60232 158.386 4.26458 157.459 4.29769C156.499 4.33081 155.572 4.29769 154.545 4.29769C154.545 4.69505 154.545 4.95996 154.545 5.25797C154.578 7.74146 154.578 10.2249 154.612 12.6753C154.645 15.7548 154.711 18.8344 154.744 21.9139C154.744 22.2781 154.711 22.6755 154.578 23.0066C154.347 23.6689 153.751 24.0331 153.088 24C152.393 23.9338 151.896 23.6026 151.698 22.9404C151.598 22.543 151.532 22.0794 151.532 21.649C151.499 18.9006 151.499 16.1522 151.466 13.4369C151.466 13.0396 151.466 12.6753 151.466 12.278C149.38 12.278 147.393 12.278 145.307 12.278C145.307 12.6091 145.274 12.9402 145.241 13.2713C145.009 17.3443 143.883 21.1854 141.929 24.7616C141.168 26.1855 140.24 27.4438 138.949 28.4703C138.717 28.6358 138.519 28.8014 138.287 28.9339C137.658 29.265 136.863 29.1325 136.399 28.6689C135.936 28.2385 135.803 27.5431 136.101 26.8808C136.201 26.6159 136.366 26.351 136.631 26.1855C138.585 24.7616 139.578 22.7086 140.406 20.5231C141.267 18.2383 141.929 15.8873 142.062 13.4369C142.062 13.0727 142.095 12.7084 142.128 12.2117C141.499 12.2117 140.936 12.2117 140.373 12.2117C139.843 12.2117 139.346 12.2117 138.817 12.2117C137.956 12.1786 137.326 11.5495 137.293 10.7548C137.26 9.92692 137.923 9.19844 138.817 9.16532C139.545 9.13221 140.307 9.13221 141.035 9.13221C141.366 9.13221 141.697 9.13221 142.194 9.13221C142.095 7.54278 142.029 6.01958 141.962 4.43015C141.366 4.43015 140.87 4.43015 140.373 4.43015C139.313 4.39703 138.651 3.83411 138.618 2.97317C138.585 2.046 139.214 1.31751 140.274 1.2844C142.393 1.21817 144.545 1.21817 146.664 1.21817C149.976 1.18506 153.32 1.21817 156.631 1.21817C156.896 1.21817 157.161 1.21817 157.426 1.21817ZM151.333 9.06598C151.333 7.47655 151.333 5.92024 151.333 4.33081C149.214 4.33081 147.227 4.33081 145.141 4.33081C145.241 5.95335 145.307 7.47655 145.406 9.06598C147.426 9.06598 149.347 9.06598 151.333 9.06598ZM179.254 1.58242C179.949 1.81421 180.413 2.44336 180.379 3.10562C180.379 3.801 179.817 4.46326 179.055 4.59571C178.823 4.66194 178.525 4.62883 178.26 4.62883C175.909 4.62883 173.591 4.62883 171.24 4.62883C170.876 4.62883 170.512 4.62883 170.081 4.62883C170.081 5.68845 170.081 6.64872 170.081 7.74146C170.777 7.74146 171.439 7.74146 172.101 7.74146C173.028 7.74146 173.956 7.70835 174.85 7.74146C175.711 7.77457 176.34 8.43683 176.34 9.23155C176.34 10.0925 175.711 10.7548 174.783 10.7879C173.393 10.8541 172.002 10.8872 170.611 10.9203C170.379 10.9534 170.148 10.9534 169.883 10.9865C169.717 12.5429 169.618 14.033 169.419 15.5562C169.121 18.0728 168.724 20.5562 167.796 22.9735C167.234 24.5629 166.34 25.9206 165.147 27.1126C164.883 27.3775 164.585 27.6093 164.253 27.7749C163.624 28.0398 162.929 27.8411 162.465 27.3444C162.035 26.8477 161.969 26.1524 162.3 25.5563C162.399 25.3576 162.532 25.1921 162.664 25.0596C164.22 23.702 164.916 21.8808 165.412 19.9602C166.008 17.7085 166.638 13.0396 166.571 10.9534C166.008 10.9534 165.512 10.9534 165.015 10.9534C164.088 10.9534 163.194 10.9865 162.267 10.9865C161.406 10.9534 160.777 10.3243 160.71 9.52957C160.677 8.76797 161.141 8.1057 161.969 7.90702C162.333 7.80768 162.697 7.80768 163.061 7.80768C164.253 7.77457 165.445 7.77457 166.77 7.77457C166.803 6.71495 166.836 5.75467 166.737 4.62883C166.24 4.62883 165.777 4.62883 165.313 4.62883C164.419 4.62883 163.525 4.66194 162.664 4.62883C161.704 4.5626 161.108 3.93345 161.108 3.07251C161.075 2.21157 161.671 1.58242 162.598 1.48308C162.763 1.44997 162.929 1.44997 163.094 1.44997C168.161 1.48308 173.194 1.44997 178.26 1.48308C178.591 1.48308 178.923 1.51619 179.254 1.58242ZM199.477 1.05261C200.239 1.15195 200.835 1.7811 200.835 2.5427C200.835 3.33741 200.305 3.96656 199.477 4.09902C199.08 4.13213 198.683 4.13213 198.285 4.13213C196.497 4.13213 194.676 4.09902 192.888 4.09902C192.623 4.09902 192.358 4.09902 191.961 4.09902C191.861 7.04608 191.762 9.79447 191.63 12.576C191.464 15.1588 191.332 17.7747 191.067 20.3576C190.802 23.0728 189.577 25.3908 187.722 27.3775C187.557 27.51 187.424 27.6756 187.259 27.808C186.596 28.3047 185.702 28.2716 185.139 27.7418C184.577 27.1789 184.51 26.3179 185.04 25.6225C185.139 25.457 185.305 25.2914 185.438 25.159C186.994 23.4702 187.822 21.4834 188.02 19.2317C188.153 17.7747 188.252 16.3178 188.318 14.8608C188.484 11.6157 188.616 8.37061 188.749 5.12552C188.782 4.8275 188.749 4.52949 188.749 4.13213C188.053 4.13213 187.424 4.13213 186.795 4.13213C185.636 4.13213 184.477 4.16524 183.318 4.16524C182.259 4.13213 181.563 3.53609 181.563 2.60893C181.563 1.68176 182.192 1.08572 183.318 1.08572C185.669 1.05261 188.053 1.05261 190.438 1.05261C193.12 1.05261 195.835 1.0195 198.55 1.0195C198.848 1.0195 199.179 0.986382 199.477 1.05261Z" fill="#FF6464"/>
</svg>
